HIERARCHY
ROOT Hips
{
	OFFSET 0.000000 0.000000 0.000000
	CHANNELS 6 Xposition Yposition Zposition Zrotation Yrotation Xrotation 
	JOINT LHipJoint
	{
		OFFSET 0.000000 0.000000 0.000000
		CHANNELS 3 Zrotation Yrotation Xrotation
		JOINT LeftUpLeg
		{
			OFFSET 1.363060 -1.794630 0.839290
			CHANNELS 3 Zrotation Yrotation Xrotation
			JOINT LeftLeg
			{
				OFFSET 2.448110 -6.726130 0.000000
				CHANNELS 3 Zrotation Yrotation Xrotation
				JOINT LeftFoot
				{
					OFFSET 2.562200 -7.039590 0.000000
					CHANNELS 3 Zrotation Yrotation Xrotation
					JOINT LeftToeBase
					{
						OFFSET 0.157640 -0.433110 2.322550
						CHANNELS 3 Zrotation Yrotation Xrotation
						End Site
						{
							OFFSET 0.000000 0.000000 0.000000
						}
					}
				}
			}
		}
	}
	JOINT RHipJoint
	{
		OFFSET 0.000000 0.000000 0.000000
		CHANNELS 3 Zrotation Yrotation Xrotation
		JOINT RightUpLeg
		{
			OFFSET -1.305520 -1.794630 0.839290
			CHANNELS 3 Zrotation Yrotation Xrotation
			JOINT RightLeg
			{
				OFFSET -2.542530 -6.985550 0.000000
				CHANNELS 3 Zrotation Yrotation Xrotation
				JOINT RightFoot
				{
					OFFSET -2.568260 -7.056230 0.000000
					CHANNELS 3 Zrotation Yrotation Xrotation
					JOINT RightToeBase
					{
						OFFSET -0.164730 -0.452590 2.363150
						CHANNELS 3 Zrotation Yrotation Xrotation
						End Site
						{
							OFFSET 0.000000 0.000000 0.000000
						}
					}
				}
			}
		}
	}
	JOINT LowerBack
	{
		OFFSET 0.000000 0.000000 0.000000
		CHANNELS 3 Zrotation Yrotation Xrotation
		JOINT Spine
		{
			OFFSET 0.028270 2.035590 -0.193380
			CHANNELS 3 Zrotation Yrotation Xrotation
			JOINT Spine1
			{
				OFFSET 0.056720 2.048850 -0.042750
				CHANNELS 3 Zrotation Yrotation Xrotation
				JOINT Neck
				{
					OFFSET 0.000000 0.000000 0.000000
					CHANNELS 3 Zrotation Yrotation Xrotation
					JOINT Neck1
					{
						OFFSET -0.054170 1.746240 0.172020
						CHANNELS 3 Zrotation Yrotation Xrotation
						JOINT Head
						{
							OFFSET 0.104070 1.761360 -0.123970
							CHANNELS 3 Zrotation Yrotation Xrotation
							End Site
							{
								OFFSET 0.000000 0.000000 0.000000
							}
						}
					}
				}
				JOINT LeftShoulder
				{
					OFFSET 0.000000 0.000000 0.000000
					CHANNELS 3 Zrotation Yrotation Xrotation
					JOINT LeftArm
					{
						OFFSET 3.362410 1.200890 -0.311210
						CHANNELS 3 Zrotation Yrotation Xrotation
						JOINT LeftForeArm
						{
							OFFSET 4.983000 -0.000000 -0.000000
							CHANNELS 3 Zrotation Yrotation Xrotation
							JOINT LeftHand
							{
								OFFSET 3.483560 -0.000000 -0.000000
								CHANNELS 3 Zrotation Yrotation Xrotation
								JOINT LeftFingerBase
								{
									OFFSET 0.000000 0.000000 0.000000
									CHANNELS 3 Zrotation Yrotation Xrotation
									JOINT LeftHandIndex1
									{
										OFFSET 0.715260 -0.000000 -0.000000
										CHANNELS 3 Zrotation Yrotation Xrotation
										End Site
										{
											OFFSET 0.000000 0.000000 0.000000
										}
									}
								}
								JOINT LThumb
								{
									OFFSET 0.000000 0.000000 0.000000
									CHANNELS 3 Zrotation Yrotation Xrotation
									End Site
									{
										OFFSET 0.000000 0.000000 0.000000
									}
								}
							}
						}
					}
				}
				JOINT RightShoulder
				{
					OFFSET 0.000000 0.000000 0.000000
					CHANNELS 3 Zrotation Yrotation Xrotation
					JOINT RightArm
					{
						OFFSET -3.136600 1.374050 -0.404650
						CHANNELS 3 Zrotation Yrotation Xrotation
						JOINT RightForeArm
						{
							OFFSET -5.241900 -0.000000 -0.000000
							CHANNELS 3 Zrotation Yrotation Xrotation
							JOINT RightHand
							{
								OFFSET -3.444170 -0.000000 -0.000000
								CHANNELS 3 Zrotation Yrotation Xrotation
								JOINT RightFingerBase
								{
									OFFSET 0.000000 0.000000 0.000000
									CHANNELS 3 Zrotation Yrotation Xrotation
									JOINT RightHandIndex1
									{
										OFFSET -0.622530 -0.000000 -0.000000
										CHANNELS 3 Zrotation Yrotation Xrotation
										End Site
										{
											OFFSET 0.000000 0.000000 0.000000
										}
									}
								}
								JOINT RThumb
								{
									OFFSET 0.000000 0.000000 0.000000
									CHANNELS 3 Zrotation Yrotation Xrotation
									End Site
									{
										OFFSET 0.000000 0.000000 0.000000
									}
								}
							}
						}
					}
				}
			}
		}
	}
}
MOTION
Frames: 10
Frame Time: 0.008333
3.753511 17.282593 0.789402 11.969843 -81.178571 0.853052 -11.180892 0.424489 1.835510 -5.035839 8.089562 -18.120899 -2.546599 -1.663261 -2.478766 0.147245 3.971999 6.678811 1.382600 -0.000000 -34.676300 9.691404 -2.527791 1.707794 3.064433 -9.199031 -13.142398 2.143048 1.005296 -1.584944 -0.585855 -7.329097 -0.523493 -2.347700 -0.000000 -41.103300 -0.021822 5.486582 -4.059247 0.332758 5.606143 -4.026249 1.850137 5.630324 -3.552373 -8.638464 7.444304 0.266306 -0.182876 -0.155706 2.253541 0.000000 0.000000 0.000000 0.128672 3.621607 -5.240581 -93.691594 -31.147233 37.228379 -179.923283 -54.751780 179.938773 2.522425 -8.381272 -0.202593 0.088288 1.062025 -0.000000 0.000000 0.000000 0.000000 0.000000 0.000000 0.000000 -21.305464 14.500868 3.275535 -5.848259 56.700932 -103.849009 -3.826120 2.569837 -0.095787 -15.243331 10.896452 -1.564426 0.257309 -0.556575 -0.000000 0.000000 0.000000 0.000000 0.000000 0.000000 0.000000 
3.744909 17.281398 0.788914 11.275898 -80.875627 1.535746 -11.147999 0.439705 1.874565 -4.987754 7.933941 -18.103712 -2.549870 -1.664626 -2.530090 0.132713 3.852703 6.712797 1.357900 -0.000000 -34.760300 9.720109 -2.523749 1.689842 3.105442 -9.267571 -13.070431 2.129609 1.003126 -1.504897 -0.596785 -7.546983 -0.654239 -2.398900 0.000000 -41.006100 0.006307 5.433779 -4.093918 0.311439 5.549221 -4.063409 1.719041 5.583769 -3.684279 -8.472193 7.213694 0.349848 -0.229645 -0.160316 2.277573 0.000000 0.000000 0.000000 0.281876 3.632223 -5.171710 -93.676435 -30.970161 37.082807 -179.902614 -54.708183 179.938686 2.533833 -8.391694 -0.203944 0.086509 1.067107 -0.000000 0.000000 0.000000 0.000000 0.000000 0.000000 0.000000 -21.068993 14.255514 2.922788 -3.980330 57.126737 -101.453310 -3.868236 3.875415 -0.096255 -14.368630 11.115730 -1.502858 0.227690 -0.572233 -0.000000 0.000000 0.000000 0.000000 0.000000 0.000000 0.000000 
3.736312 17.279937 0.788989 10.614034 -80.583282 2.177556 -11.118759 0.456901 1.901579 -4.938493 7.813368 -18.064266 -2.554632 -1.663779 -2.601457 0.115171 3.700314 6.752389 1.324500 -0.000000 -34.864500 9.745998 -2.515224 1.668226 3.142923 -9.301266 -12.963473 2.111230 1.003190 -1.439978 -0.613487 -7.805005 -0.780938 -2.457800 0.000000 -40.913500 0.041173 5.364522 -4.110599 0.278340 5.473772 -4.117246 1.520217 5.523579 -3.895066 -8.197144 7.047498 0.502933 -0.301250 -0.167712 2.320718 0.000000 0.000000 0.000000 0.494426 3.637039 -5.066353 -93.604425 -30.746572 36.874446 -179.865074 -54.667294 179.938579 2.563793 -8.389600 -0.206768 0.082580 1.073511 -0.000000 0.000000 0.000000 0.000000 0.000000 0.000000 0.000000 -20.662482 14.052276 2.437997 -1.430370 57.603477 -97.501636 -3.946351 5.691968 -0.096978 -13.328883 11.208280 -1.404599 0.192209 -0.590006 -0.000000 0.000000 0.000000 0.000000 0.000000 0.000000 0.000000 
3.727885 17.278208 0.789496 10.001920 -80.309429 2.764212 -11.094769 0.474528 1.913146 -4.889350 7.732135 -18.004244 -2.560819 -1.660907 -2.690672 0.095186 3.519444 6.796159 1.283500 -0.000000 -34.987401 9.767870 -2.502348 1.641760 3.176200 -9.299301 -12.824578 2.088592 1.005701 -1.394882 -0.635963 -8.093397 -0.900093 -2.521500 0.000000 -40.826200 0.072778 5.282810 -4.101883 0.231719 5.384388 -4.192226 1.253698 5.454375 -4.208451 -7.814279 6.972653 0.734012 -0.391219 -0.177644 2.385551 0.000000 0.000000 0.000000 0.774637 3.640891 -4.922991 -93.490807 -30.469576 36.625146 -179.813937 -54.638308 179.938408 2.610150 -8.378617 -0.210980 0.076852 1.081009 -0.000000 0.000000 0.000000 0.000000 0.000000 0.000000 0.000000 -20.127687 13.908450 1.792363 2.129747 57.991952 -91.273527 -4.104125 8.166813 -0.098899 -12.403900 10.931771 -1.275440 0.158168 -0.606297 -0.000000 0.000000 0.000000 0.000000 0.000000 0.000000 0.000000 
3.719697 17.276274 0.790260 9.443630 -80.066764 3.292535 -11.076319 0.492972 1.909077 -4.840008 7.691983 -17.925446 -2.567810 -1.655892 -2.795756 0.073800 3.317708 6.842835 1.236500 -0.000000 -35.125600 9.785442 -2.484812 1.610128 3.206062 -9.262671 -12.657647 2.062962 1.011366 -1.372264 -0.663629 -8.400451 -1.008015 -2.586800 0.000000 -40.743300 0.097511 5.185053 -4.066974 0.175591 5.277779 -4.285777 0.937051 5.370402 -4.610792 -7.345376 6.997300 1.028236 -0.493889 -0.189413 2.467770 0.000000 0.000000 0.000000 1.108121 3.669957 -4.749595 -93.342143 -30.147661 36.349260 -179.755135 -54.620587 179.938114 2.672171 -8.361530 -0.216389 0.069794 1.089014 -0.000000 0.000000 0.000000 0.000000 0.000000 0.000000 0.000000 -19.498614 13.808345 1.020034 6.592187 58.151660 -83.123858 -4.380972 11.277040 -0.103035 -11.762682 10.305612 -1.142770 0.127469 -0.621850 -0.000000 0.000000 0.000000 0.000000 0.000000 0.000000 0.000000 
3.711606 17.274282 0.791150 8.935720 -79.869385 3.765032 -11.062553 0.514932 1.894256 -4.789000 7.691678 -17.828848 -2.574679 -1.648684 -2.914508 0.052233 3.104391 6.890988 1.185700 -0.000001 -35.274300 9.799286 -2.463314 1.575855 3.234339 -9.195570 -12.466484 2.036072 1.021102 -1.372077 -0.695376 -8.712914 -1.101073 -2.650600 0.000001 -40.662900 0.115814 5.063492 -4.016471 0.118728 5.146587 -4.387877 0.604346 5.259902 -5.047137 -6.824329 7.103982 1.354762 -0.605850 -0.202105 2.558239 0.000000 0.000000 0.000000 1.461009 3.755187 -4.561470 -93.157187 -29.807326 36.051368 -179.696497 -54.608737 179.937617 2.750785 -8.339736 -0.223096 0.061943 1.096832 -0.000000 0.000000 0.000000 0.000000 0.000000 0.000000 0.000000 -18.783671 13.713790 0.211796 11.443068 58.032154 -74.241098 -4.759553 14.877182 -0.109834 -11.433002 9.486593 -1.026472 0.098518 -0.638973 -0.000000 0.000000 0.000000 0.000000 0.000000 0.000000 0.000000 
3.703662 17.272327 0.792060 8.465145 -79.726197 4.186835 -11.052216 0.542970 1.876121 -4.733919 7.726804 -17.714170 -2.580287 -1.639363 -3.043040 0.031563 2.889181 6.939277 1.133499 0.000000 -35.427400 9.810160 -2.439666 1.543387 3.263090 -9.105473 -12.254884 2.009570 1.035132 -1.391935 -0.730053 -9.019081 -1.177743 -2.710499 -0.000000 -40.583000 0.129408 4.914173 -3.967122 0.070003 4.987500 -4.485863 0.290880 5.115700 -5.449651 -6.283419 7.251518 1.685161 -0.724640 -0.214921 2.648544 0.000000 0.000000 0.000000 1.793858 3.909125 -4.372900 -92.932345 -29.486045 35.733685 -179.643675 -54.600988 179.936868 2.846590 -8.313423 -0.231095 0.053703 1.104070 -0.000000 0.000000 0.000000 0.000000 0.000000 0.000000 0.000000 -17.980456 13.587496 -0.541712 16.142836 57.695485 -65.860529 -5.152159 18.810842 -0.118765 -11.338260 8.659680 -0.934127 0.069351 -0.659238 0.000000 0.000000 0.000000 0.000000 0.000000 0.000000 0.000000 
3.695778 17.270506 0.792913 8.019254 -79.636897 4.565642 -11.044195 0.578047 1.861340 -4.672714 7.788891 -17.582544 -2.583748 -1.628376 -3.176276 0.012652 2.681556 6.986134 1.082200 0.000000 -35.580400 9.818775 -2.416294 1.516389 3.294477 -9.003086 -12.027905 1.984953 1.052767 -1.427415 -0.766059 -9.308166 -1.238626 -2.764400 -0.000000 -40.503300 0.137590 4.740211 -3.932870 0.032746 4.804299 -4.570652 0.012658 4.940119 -5.771242 -5.735337 7.385268 2.002519 -0.850663 -0.227513 2.733757 0.000000 0.000000 0.000000 2.086934 4.124738 -4.192528 -92.670861 -29.215933 35.405099 -179.597590 -54.604261 179.935902 2.956332 -8.283458 -0.240180 0.045315 1.110763 -0.000000 0.000000 0.000000 0.000000 0.000000 0.000000 0.000000 -17.075663 13.398910 -1.194548 20.423860 57.244367 -58.594839 -5.458682 22.987065 -0.129064 -11.429565 7.930395 -0.867828 0.040942 -0.681803 -0.000000 0.000000 0.000000 0.000000 0.000000 0.000000 0.000000 
3.687851 17.268848 0.793613 7.588092 -79.594209 4.912341 -11.037706 0.619187 1.853536 -4.604107 7.866315 -17.438220 -2.584508 -1.616314 -3.308478 -0.003824 2.489677 7.028751 1.033901 -0.000000 -35.728400 9.825596 -2.394737 1.495680 3.330322 -8.899849 -11.793435 1.963447 1.072878 -1.472858 -0.801833 -9.571709 -1.286459 -2.810800 -0.000000 -40.424299 0.141916 4.548889 -3.919016 0.007278 4.604436 -4.638549 -0.226498 4.741254 -5.998109 -5.194474 7.472457 2.298406 -0.980119 -0.239514 2.811754 0.000000 0.000000 0.000000 2.328616 4.389294 -4.022633 -92.376653 -29.015503 35.076245 -179.555808 -54.623450 179.934802 3.074891 -8.249886 -0.249749 0.036849 1.116964 -0.000000 0.000000 0.000000 0.000000 0.000000 0.000000 0.000000 -16.102631 13.139385 -1.746051 24.342261 56.725067 -52.491812 -5.618272 27.423608 -0.139934 -11.641454 7.324555 -0.821878 0.013680 -0.704814 -0.000000 0.000000 0.000000 0.000000 0.000000 0.000000 0.000000 
3.679583 17.267334 0.794099 7.167396 -79.587123 5.236300 -11.032024 0.665188 1.855470 -4.527915 7.945842 -17.287569 -2.582332 -1.603818 -3.434258 -0.017377 2.320258 7.064472 0.990500 -0.000001 -35.868100 9.831082 -2.376014 1.480868 3.372111 -8.807511 -11.560739 1.946058 1.094372 -1.521158 -0.835354 -9.803258 -1.326010 -2.848900 -0.000000 -40.347800 0.142224 4.347364 -3.927904 -0.008840 4.395072 -4.688459 -0.432965 4.527616 -6.129742 -4.664193 7.492116 2.566451 -1.111730 -0.250764 2.880984 0.000000 0.000000 0.000000 2.523085 4.688953 -3.865166 -92.059422 -28.891361 34.758053 -179.515902 -54.662106 179.933677 3.194851 -8.213810 -0.259303 0.028484 1.122773 -0.000000 0.000000 0.000000 0.000000 0.000000 0.000000 0.000000 -15.083566 12.806711 -2.202972 27.998402 56.144030 -47.379843 -5.602192 32.141222 -0.150875 -11.952449 6.820226 -0.791194 -0.011119 -0.725990 -0.000000 0.000000 0.000000 0.000000 0.000000 0.000000 0.000000 
